<svg width="25" height="23" viewBox="0 0 25 23" fill="none" xmlns="http://www.w3.org/2000/svg">
<path d="M23.9583 2.77778H19.4444V1.04167C19.4444 0.46441 18.98 0 18.4028 0H6.59722C6.01997 0 5.55556 0.46441 5.55556 1.04167V2.77778H1.04167C0.46441 2.77778 0 3.24219 0 3.81944V6.25C0 7.79948 0.976562 9.39236 2.68663 10.6207C4.05382 11.6059 5.71615 12.2309 7.46094 12.4306C8.82378 14.6918 10.4167 15.625 10.4167 15.625V18.75H8.33333C6.80122 18.75 5.55556 19.6484 5.55556 21.1806V21.7014C5.55556 21.9878 5.78993 22.2222 6.07639 22.2222H18.9236C19.2101 22.2222 19.4444 21.9878 19.4444 21.7014V21.1806C19.4444 19.6484 18.1988 18.75 16.6667 18.75H14.5833V15.625C14.5833 15.625 16.1762 14.6918 17.5391 12.4306C19.2882 12.2309 20.9505 11.6059 22.3134 10.6207C24.0191 9.39236 25 7.79948 25 6.25V3.81944C25 3.24219 24.5356 2.77778 23.9583 2.77778ZM4.3099 8.36806C3.25087 7.60417 2.77778 6.75347 2.77778 6.25V5.55556H5.56424C5.60764 6.97049 5.81597 8.21181 6.11979 9.29687C5.46441 9.07118 4.85243 8.75868 4.3099 8.36806ZM22.2222 6.25C22.2222 6.94878 21.454 7.81684 20.6901 8.36806C20.1476 8.75868 19.5312 9.07118 18.8759 9.29687C19.1797 8.21181 19.388 6.97049 19.4314 5.55556H22.2222V6.25Z" fill="#82858F"/>
</svg>
