<svg width="20" height="20" viewBox="0 0 20 20" fill="none" xmlns="http://www.w3.org/2000/svg">
<path fill-rule="evenodd" clip-rule="evenodd" d="M11.09 11.75C11.24 11.94 11.42 12.155 11.42 12.155C12.525 12.12 12.95 11.395 12.95 11.395C12.95 9.785 12.23 8.48 12.23 8.48C11.51 7.94 10.825 7.955 10.825 7.955L10.755 8.035C11.605 8.295 12 8.67 12 8.67C11.48 8.385 10.97 8.245 10.495 8.19C10.135 8.15 9.79 8.16 9.485 8.2C9.45881 8.2 9.43643 8.20381 9.41121 8.20811L9.4 8.21C9.225 8.225 8.8 8.29 8.265 8.525C8.08 8.61 7.97 8.67 7.97 8.67C7.97 8.67 8.385 8.275 9.285 8.015L9.235 7.955C9.235 7.955 8.55 7.94 7.83 8.48C7.83 8.48 7.11 9.785 7.11 11.395C7.11 11.395 7.53 12.12 8.635 12.155C8.635 12.155 8.82 11.93 8.97 11.74C8.335 11.55 8.095 11.15 8.095 11.15C8.095 11.15 8.145 11.185 8.235 11.235C8.24 11.24 8.245 11.245 8.255 11.25C8.2625 11.255 8.27 11.2588 8.2775 11.2625C8.285 11.2663 8.2925 11.27 8.3 11.275C8.425 11.345 8.55 11.4 8.665 11.445C8.87 11.525 9.115 11.605 9.4 11.66C9.775 11.73 10.215 11.755 10.695 11.665C10.93 11.625 11.17 11.555 11.42 11.45C11.595 11.385 11.79 11.29 11.995 11.155C11.995 11.155 11.745 11.565 11.09 11.75ZM8.585 10.375C8.585 10.07 8.81 9.82 9.095 9.82C9.38 9.82 9.61 10.07 9.605 10.375C9.605 10.68 9.38 10.93 9.095 10.93C8.815 10.93 8.585 10.68 8.585 10.375ZM10.41 10.375C10.41 10.07 10.635 9.82 10.92 9.82C11.205 9.82 11.43 10.07 11.43 10.375C11.43 10.68 11.205 10.93 10.92 10.93C10.64 10.93 10.41 10.68 10.41 10.375Z" fill="white" fill-opacity="0.6"/>
<path fill-rule="evenodd" clip-rule="evenodd" d="M10 0C15.5228 0 20 4.47715 20 10C20 15.5228 15.5228 20 10 20C4.47715 20 0 15.5228 0 10C0 4.47715 4.47715 0 10 0ZM5.625 6.655C5.625 6.085 6.085 5.625 6.65 5.625H13.35C13.915 5.625 14.375 6.085 14.375 6.655V15.625L13.3 14.675L12.695 14.115L12.055 13.52L12.32 14.445H6.65C6.085 14.445 5.625 13.985 5.625 13.415V6.655Z" fill="white" fill-opacity="0.6"/>
</svg>
