<svg width="20" height="20" viewBox="0 0 20 20" fill="none" xmlns="http://www.w3.org/2000/svg">
<path fill-rule="evenodd" clip-rule="evenodd" d="M0 10C0 4.47715 4.47715 0 10 0C15.5228 0 20 4.47715 20 10C20 15.5228 15.5228 20 10 20C4.47715 20 0 15.5228 0 10ZM5 10.1047C5 7.35242 7.2324 5.12 9.9847 5.12C12.737 5.12 14.9694 7.35242 15 10.1047C15 12.3065 13.5933 14.172 11.6055 14.8448C11.3609 14.8754 11.2691 14.7224 11.2691 14.6001V13.224C11.2691 12.7653 11.1162 12.4594 10.9327 12.3065C12.0337 12.1842 13.1957 11.7867 13.1957 9.86006C13.1957 9.3096 12.9816 8.85089 12.6759 8.5145C12.6783 8.50489 12.6816 8.49283 12.6856 8.47843C12.7324 8.30955 12.8683 7.81945 12.6147 7.19951C12.6147 7.19951 12.1865 7.07719 11.2385 7.71939C10.841 7.62765 10.4128 7.56648 9.9847 7.56648C9.55658 7.56648 9.12846 7.59706 8.73089 7.71939C7.78286 7.07719 7.35474 7.19951 7.35474 7.19951C7.08447 7.8602 7.25655 8.37342 7.29179 8.47855L7.29359 8.48392C6.95717 8.85089 6.77368 9.27902 6.77368 9.82948C6.77368 11.7561 7.93579 12.1842 9.03671 12.3065C8.91438 12.4289 8.76148 12.6429 8.73089 12.9793C8.45566 13.1017 7.7523 13.3157 7.29359 12.5512C7.29359 12.5512 7.01836 12.0619 6.52905 12.0313C6.52905 12.0313 6.03977 12.0313 6.49849 12.3371C6.49849 12.3371 6.83487 12.49 7.04891 13.0711C7.04891 13.0711 7.35474 14.0497 8.73089 13.7439V14.6001C8.73089 14.7224 8.63914 14.8754 8.39451 14.8448C6.4373 14.172 5 12.3065 5 10.1047Z" fill="white" fill-opacity="0.6"/>
</svg>
