<svg width="35" height="24" viewBox="0 0 35 24" fill="none" xmlns="http://www.w3.org/2000/svg">
<path fill-rule="evenodd" clip-rule="evenodd" d="M10.7228 7.79834C10.7178 7.87906 10.772 7.95427 10.8503 7.9746C11.5656 8.16044 12.1894 8.43729 12.7726 8.75368C12.8876 8.81607 13.0295 8.72942 13.0326 8.59862C13.1699 2.85327 20.7246 0.399812 24.8417 6.6114C24.9371 6.75528 25.1634 6.68509 25.1497 6.51301C24.4551 -2.23351 11.3073 -1.75416 10.7228 7.79834ZM0.3747 17.5537C0.264868 17.6863 0.0552162 17.6059 0.0947735 17.4383C0.624631 15.1939 3.23692 12.3466 8.1475 13.5929C10.0145 14.1037 12.3264 15.5617 14.7375 17.2258C22.7251 23.0303 28.8629 22.8031 32.755 19.8113C32.9112 19.6912 33.1216 19.8741 32.9999 20.0291C29.2718 24.7777 21.7165 25.0349 15.0521 20.2908C12.1665 18.2856 9.72937 16.7029 7.68337 16.0137C4.71595 15.128 2.06607 15.5121 0.3747 17.5537ZM0.621516 12.9181C0.487073 13.0362 0.299934 12.9111 0.387387 12.755C1.43364 10.8872 4.09882 9.37857 6.56911 9.10274C10.7011 8.88802 13.4772 11.3729 15.704 13.1981C17.0651 14.3132 18.5287 15.2656 20.1349 15.9946C23.7315 17.6258 28.531 18.2683 32.6057 14.2647C33.6626 13.1015 34.0718 12.3826 34.3655 11.7434C34.4436 11.5735 34.6674 11.6316 34.6421 11.8168C34.0249 16.3296 31.2006 19.2431 26.4033 19.5843C21.4543 19.9358 17.4614 17.328 14.4141 15.1288C13.3034 14.3271 12.1595 13.437 11.0018 12.7097C7.28549 10.3703 3.47389 10.4124 0.621516 12.9181ZM20.0872 5.035C20.2269 4.95832 20.2027 4.74242 20.0467 4.71016C13.3425 3.32414 14.1784 14.3205 23.589 15.3141C30.16 15.5285 33.8784 10.8666 33.6183 5.72368C33.6085 5.5297 33.2941 5.51311 33.2339 5.69778C32.1713 8.95952 28.354 13.0937 23.8063 12.5989C20.952 12.4309 18.009 10.637 18.3115 7.41267C18.5503 6.30906 19.1688 5.53927 20.0872 5.035Z" fill="#31F79B"/>
</svg>
