<svg width="20" height="20" viewBox="0 0 20 20" fill="none" xmlns="http://www.w3.org/2000/svg">
<path fill-rule="evenodd" clip-rule="evenodd" d="M10 20C4.47716 20 0 15.5228 0 10C0 4.47715 4.47716 0 10 0C15.5228 0 20 4.47715 20 10C20 15.5228 15.5228 20 10 20ZM6.06251 7.31251C6.12499 7.375 6.1875 7.5 6.1875 7.62501V12C6.25 12.1875 6.1875 12.3125 6.06251 12.4375L5 13.6875V13.875H7.93751V13.6875L6.875 12.4375C6.8125 12.3125 6.74999 12.1875 6.74999 12V8.1875L9.375 13.875H9.625L11.875 8.1875V12.75C11.875 12.875 11.875 12.9375 11.8125 13L11 13.8125V14H14.9375V13.8125L14.1875 13.0625C14.125 13 14.125 12.875 14.125 12.8125V7.1875C14.0625 7.0625 14.125 7.00001 14.1875 6.9375L15 6.18751V6H12.25L10.25 10.9375L7.99999 6H5.12501V6.18751L6.06251 7.31251Z" fill="white" fill-opacity="0.6"/>
</svg>
