<svg width="25" height="23" viewBox="0 0 25 23" fill="none" xmlns="http://www.w3.org/2000/svg">
<path d="M24.3056 19.4444H23.6111V4.16667H1.38889V19.4444H0.695312C0.311632 19.4444 0.000868056 19.7552 0.000868056 20.1389V21.5278C0.000868056 21.9115 0.311632 22.2222 0.695312 22.2222H7.63889C8.02257 22.2222 8.33333 21.9115 8.33333 21.5278V13.8889C8.33333 11.5877 10.1988 9.72222 12.5 9.72222C14.8012 9.72222 16.6667 11.5877 16.6667 13.8889L16.6675 20.8333V21.5278C16.6675 21.9115 16.9783 22.2222 17.362 22.2222H24.3056C24.6892 22.2222 25 21.9115 25 21.5278V20.1389C25 19.7552 24.6892 19.4444 24.3056 19.4444ZM24.3056 0H0.694444C0.310764 0 0 0.310764 0 0.694444V2.08333C0 2.46701 0.310764 2.77778 0.694444 2.77778H24.3056C24.6892 2.77778 25 2.46701 25 2.08333V0.694444C25 0.310764 24.6892 0 24.3056 0Z" fill="#82858F"/>
</svg>
