<svg width="9" height="9" viewBox="0 0 9 9" fill="none" xmlns="http://www.w3.org/2000/svg">
<path d="M6.10708 2.75806C5.84392 1.1377 5.22323 0 4.50091 0C3.77858 0 3.15789 1.1377 2.89474 2.75806H6.10708ZM2.75862 4.5C2.75862 4.90282 2.7804 5.28931 2.81851 5.66129H6.18149C6.2196 5.28931 6.24138 4.90282 6.24138 4.5C6.24138 4.09718 6.2196 3.71069 6.18149 3.33871H2.81851C2.7804 3.71069 2.75862 4.09718 2.75862 4.5ZM8.65154 2.75806C8.13249 1.52601 7.08167 0.573387 5.78403 0.18871C6.22686 0.802016 6.53176 1.7256 6.69147 2.75806H8.65154ZM3.21597 0.18871C1.92015 0.573387 0.867514 1.52601 0.350272 2.75806H2.31034C2.46824 1.7256 2.77314 0.802016 3.21597 0.18871ZM8.84574 3.33871H6.76407C6.80218 3.71976 6.82396 4.10988 6.82396 4.5C6.82396 4.89012 6.80218 5.28024 6.76407 5.66129H8.84392C8.94374 5.28931 9 4.90282 9 4.5C9 4.09718 8.94374 3.71069 8.84574 3.33871ZM2.17786 4.5C2.17786 4.10988 2.19964 3.71976 2.23775 3.33871H0.15608C0.0580762 3.71069 0 4.09718 0 4.5C0 4.90282 0.0580762 5.28931 0.15608 5.66129H2.23593C2.19964 5.28024 2.17786 4.89012 2.17786 4.5ZM2.89474 6.24194C3.15789 7.8623 3.77858 9 4.50091 9C5.22323 9 5.84392 7.8623 6.10708 6.24194H2.89474ZM5.78584 8.81129C7.08167 8.42661 8.1343 7.47399 8.65336 6.24194H6.69328C6.53358 7.27439 6.22867 8.19798 5.78584 8.81129ZM0.350272 6.24194C0.869328 7.47399 1.92015 8.42661 3.21779 8.81129C2.77495 8.19798 2.47005 7.27439 2.31034 6.24194H0.350272Z" fill="#82858F"/>
</svg>
